HIERARCHY
ROOT Hips
{
	OFFSET 0.000000 0.000000 0.000000
	CHANNELS 6 Xposition Yposition Zposition Zrotation Yrotation Xrotation 
	JOINT LHipJoint
	{
		OFFSET 0.000000 0.000000 0.000000
		CHANNELS 3 Zrotation Yrotation Xrotation
		JOINT LeftUpLeg
		{
			OFFSET 8.178360 -10.767780 5.035740
			CHANNELS 3 Zrotation Yrotation Xrotation
			JOINT LeftLeg
			{
				OFFSET 14.688660 -40.356780 0.000000
				CHANNELS 3 Zrotation Yrotation Xrotation
				JOINT LeftFoot
				{
					OFFSET 15.373200 -42.237540 0.000000
					CHANNELS 3 Zrotation Yrotation Xrotation
					JOINT LeftToeBase
					{
						OFFSET 0.945840 -2.598660 13.935300
						CHANNELS 3 Zrotation Yrotation Xrotation
						End Site
						{
							OFFSET 0.000000 0.000000 0.000000
						}
					}
				}
			}
		}
	}
	JOINT RHipJoint
	{
		OFFSET 0.000000 0.000000 0.000000
		CHANNELS 3 Zrotation Yrotation Xrotation
		JOINT RightUpLeg
		{
			OFFSET -7.833120 -10.767780 5.035740
			CHANNELS 3 Zrotation Yrotation Xrotation
			JOINT RightLeg
			{
				OFFSET -15.255180 -41.913300 0.000000
				CHANNELS 3 Zrotation Yrotation Xrotation
				JOINT RightFoot
				{
					OFFSET -15.409560 -42.337380 0.000000
					CHANNELS 3 Zrotation Yrotation Xrotation
					JOINT RightToeBase
					{
						OFFSET -0.988380 -2.715540 14.178900
						CHANNELS 3 Zrotation Yrotation Xrotation
						End Site
						{
							OFFSET 0.000000 0.000000 0.000000
						}
					}
				}
			}
		}
	}
	JOINT LowerBack
	{
		OFFSET 0.000000 0.000000 0.000000
		CHANNELS 3 Zrotation Yrotation Xrotation
		JOINT Spine
		{
			OFFSET 0.169620 12.213540 -1.160280
			CHANNELS 3 Zrotation Yrotation Xrotation
			JOINT Spine1
			{
				OFFSET 0.340320 12.293100 -0.256500
				CHANNELS 3 Zrotation Yrotation Xrotation
				JOINT Neck
				{
					OFFSET 0.000000 0.000000 0.000000
					CHANNELS 3 Zrotation Yrotation Xrotation
					JOINT Neck1
					{
						OFFSET -0.325020 10.477440 1.032120
						CHANNELS 3 Zrotation Yrotation Xrotation
						JOINT Head
						{
							OFFSET 0.624420 10.568160 -0.743820
							CHANNELS 3 Zrotation Yrotation Xrotation
							End Site
							{
								OFFSET 0.000000 0.000000 0.000000
							}
						}
					}
				}
				JOINT LeftShoulder
				{
					OFFSET 0.000000 0.000000 0.000000
					CHANNELS 3 Zrotation Yrotation Xrotation
					JOINT LeftArm
					{
						OFFSET 20.174460 7.205340 -1.867260
						CHANNELS 3 Zrotation Yrotation Xrotation
						JOINT LeftForeArm
						{
							OFFSET 29.898000 -0.000000 -0.000000
							CHANNELS 3 Zrotation Yrotation Xrotation
							JOINT LeftHand
							{
								OFFSET 20.901360 -0.000000 -0.000000
								CHANNELS 3 Zrotation Yrotation Xrotation
								JOINT LeftFingerBase
								{
									OFFSET 0.000000 0.000000 0.000000
									CHANNELS 3 Zrotation Yrotation Xrotation
									JOINT LeftHandIndex1
									{
										OFFSET 4.291560 -0.000000 -0.000000
										CHANNELS 3 Zrotation Yrotation Xrotation
										End Site
										{
											OFFSET 0.000000 0.000000 0.000000
										}
									}
								}
								JOINT LThumb
								{
									OFFSET 0.000000 0.000000 0.000000
									CHANNELS 3 Zrotation Yrotation Xrotation
									End Site
									{
										OFFSET 0.000000 0.000000 0.000000
									}
								}
							}
						}
					}
				}
				JOINT RightShoulder
				{
					OFFSET 0.000000 0.000000 0.000000
					CHANNELS 3 Zrotation Yrotation Xrotation
					JOINT RightArm
					{
						OFFSET -18.819600 8.244300 -2.427900
						CHANNELS 3 Zrotation Yrotation Xrotation
						JOINT RightForeArm
						{
							OFFSET -31.451400 -0.000000 -0.000000
							CHANNELS 3 Zrotation Yrotation Xrotation
							JOINT RightHand
							{
								OFFSET -20.665020 -0.000000 -0.000000
								CHANNELS 3 Zrotation Yrotation Xrotation
								JOINT RightFingerBase
								{
									OFFSET 0.000000 0.000000 0.000000
									CHANNELS 3 Zrotation Yrotation Xrotation
									JOINT RightHandIndex1
									{
										OFFSET -3.735180 -0.000000 -0.000000
										CHANNELS 3 Zrotation Yrotation Xrotation
										End Site
										{
											OFFSET 0.000000 0.000000 0.000000
										}
									}
								}
								JOINT RThumb
								{
									OFFSET 0.000000 0.000000 0.000000
									CHANNELS 3 Zrotation Yrotation Xrotation
									End Site
									{
										OFFSET 0.000000 0.000000 0.000000
									}
								}
							}
						}
					}
				}
			}
		}
	}
}
MOTION
Frames:	12
Frame Time:	0.0333333
109.149942 107.170968 -46.808358 2.150404 -46.148289 2.482661 -4.074616 1.128428 2.760359 -17.144542 -4.226104 -10.048652 0.173565 7.958259 23.857657 1.226177 -5.815558 -6.067928 0.098700 -2.026300 -5.578300 1.261639 -1.051956 1.222860 21.376230 4.461302 -10.763440 -2.477069 -10.398424 31.558640 -0.896795 1.093840 -9.640611 -0.129000 -2.315100 6.377400 -1.845643 -0.301004 1.819651 1.270271 -0.424690 0.449693 0.708374 -0.321062 -1.248723 -9.383430 -5.632204 -18.115024 7.039384 -6.218312 15.944372 3.888900 -2.962500 12.947100 -6.460003 -0.703258 -1.688930 -84.007661 2.977718 30.320434 16.138741 -22.974675 -4.096510 -1.232925 -2.250153 7.668096 17.399351 20.307311 7.288800 -7.125000 0.000000 0.000000 -11.122600 53.418300 -2.325400 5.161061 1.363884 -1.300710 85.860428 -7.978028 18.186262 -18.039120 26.552672 -4.660595 0.392611 -0.092456 3.148937 -14.568453 8.753752 -2.344600 7.125000 0.000000 0.000000 8.584000 -20.908200 5.011000 
108.943056 107.110050 -46.965786 1.588692 -46.324886 2.805520 -3.998997 1.097913 2.698477 -16.619108 -4.173768 -10.610819 0.400726 8.373248 25.102817 1.239048 -6.243010 -5.267062 0.005800 -0.489700 -1.345600 1.257010 -1.048934 1.231672 21.949115 4.323570 -10.585865 -2.420912 -10.289759 31.245413 -0.945855 1.374590 -9.479419 -0.137200 -2.386900 6.576200 -1.537470 -0.129539 2.310474 1.331431 -0.194474 0.475190 0.661044 -0.194525 -1.495579 -9.249654 -5.478091 -17.599958 6.511058 -6.083624 16.200774 3.670900 -2.977100 12.893100 -6.423417 -0.746977 -1.680196 -83.908192 3.047832 30.253189 16.314724 -23.221924 -4.189375 -1.179918 -2.307929 7.135740 17.009489 20.759601 7.254500 -7.125000 0.000000 0.000000 -11.761900 53.837500 -2.583100 5.181235 1.332567 -1.307331 85.842933 -8.146918 17.414286 -17.863796 26.286611 -4.552812 0.441186 -0.053592 4.683905 -15.977528 7.102803 -2.087800 7.125000 0.000000 0.000000 7.580800 -22.594500 4.121500 
108.685506 107.093160 -47.205840 1.109180 -46.427978 3.080655 -3.871947 1.018483 2.567771 -16.092090 -3.702619 -11.943109 0.854490 9.165403 27.470160 1.354531 -6.830290 -5.740686 0.096100 -1.999700 -5.504800 1.263414 -1.031799 1.255757 22.545004 4.039558 -10.262132 -2.295027 -10.058779 30.563475 -0.966896 1.559187 -9.219747 -0.105700 -2.096100 5.771300 -1.301096 -0.020283 2.843663 1.342520 -0.040435 0.556731 0.561832 -0.109858 -1.624471 -9.329575 -5.503034 -17.616479 6.565237 -6.134975 16.591484 3.716200 -3.007300 13.087400 -6.399918 -0.739613 -1.683952 -83.784369 3.125681 29.495445 16.546880 -23.546635 -4.300928 -1.218407 -2.336660 7.221822 17.519837 21.279845 7.653300 -7.125000 0.000000 0.000000 -11.454900 54.495300 -2.699100 5.165209 1.351528 -1.304819 86.023913 -8.316754 18.321755 -18.082538 26.575646 -4.666784 0.438407 -0.084188 3.136606 -15.832500 8.386564 -2.450900 7.125000 0.000000 0.000000 7.652200 -21.234600 4.399800 
108.462942 107.126934 -47.422380 0.143799 -46.248597 3.607638 -3.634247 0.906663 2.308524 -15.189475 -3.919744 -13.860789 1.663277 10.426184 31.407087 1.346358 -7.291458 -5.008494 0.406400 -4.092500 -11.337100 1.265124 -1.014615 1.313033 23.471496 3.430081 -9.732767 -2.097596 -9.679531 29.461324 -0.952359 1.732974 -8.468301 -0.088000 -1.913400 5.266500 -0.531151 -0.044608 3.560265 1.432272 -0.034714 0.661874 0.323811 -0.093486 -1.786384 -9.392194 -5.413952 -17.355446 6.411195 -6.000120 16.582174 3.693500 -2.983900 13.006500 -6.372751 -0.735302 -1.686792 -83.727810 3.319152 28.871807 16.826930 -23.932391 -4.443234 -1.208331 -2.384469 6.769694 17.692864 21.747912 7.884600 -7.125000 0.000000 0.000000 -11.501200 55.038700 -2.863200 5.176065 1.357258 -1.289769 85.895436 -8.171026 17.909924 -17.795020 26.237122 -4.538674 0.387606 -0.131259 4.553609 -14.733161 9.236302 -2.508000 7.125000 0.000000 0.000000 8.452400 -20.377000 5.034800 
108.143262 107.222838 -47.684148 -0.838122 -46.135054 4.102953 -3.247361 0.727059 1.912579 -14.146818 -3.902041 -16.925881 2.988279 12.134892 37.127194 1.297055 -8.890115 -2.250347 0.702900 -5.358800 -14.934900 1.258073 -0.999585 1.399953 24.517819 2.916069 -8.778285 -1.812411 -9.113208 27.813083 -1.002387 2.119274 -8.020102 -0.254400 -3.245600 8.963200 -0.051233 0.118656 4.367677 1.584094 0.200765 0.830901 0.305093 0.046109 -1.844131 -8.501061 -4.805649 -17.620439 5.652574 -5.417567 17.281894 3.294000 -2.742900 13.233500 -6.324662 -0.819409 -1.671568 -83.673863 3.063925 28.274464 16.887833 -24.008924 -4.466855 -1.271802 -2.338439 6.667782 18.547325 21.328411 8.155500 -7.125000 0.000000 0.000000 -10.344500 54.753700 -2.498400 5.234762 1.307966 -1.308144 85.624012 -8.071962 18.104177 -17.772772 26.200507 -4.525446 0.389651 -0.119852 4.441046 -14.742396 8.947311 -2.429900 7.125000 0.000000 0.000000 8.452900 -20.682700 4.976200 
107.874252 107.274714 -47.830716 -2.845724 -45.944290 4.764654 -2.757119 0.614790 1.501730 -12.186895 -4.344322 -19.924556 4.612771 13.871275 43.439982 1.102196 -9.915486 1.540252 0.506000 -4.559900 -12.657400 1.209628 -0.992366 1.485496 26.355097 1.892375 -7.102641 -1.468264 -8.370857 25.698463 -0.877497 1.910007 -6.837868 -0.106200 -2.100900 5.784600 1.508153 0.191883 5.773798 1.825506 0.431390 1.108257 -0.099706 0.165139 -2.112579 -8.975390 -4.952158 -16.629687 6.185291 -5.534929 16.502747 3.596000 -2.787500 12.715000 -6.284509 -0.738039 -1.674906 -83.929035 3.520828 27.021104 17.439585 -24.731660 -4.763326 -1.170063 -2.307853 7.977482 17.333818 21.148794 7.495100 -7.125000 0.000000 0.000000 -11.656600 54.298500 -2.691400 5.231802 1.373316 -1.250855 85.468196 -7.985001 17.891319 -17.741094 26.160557 -4.507950 0.393522 -0.126468 4.776635 -14.926674 8.971930 -2.469300 7.125000 0.000000 0.000000 8.316700 -20.644400 4.901600 
107.500296 107.406804 -47.820462 -3.874174 -46.196009 5.144327 -2.435677 0.499258 1.134937 -11.011238 -5.586397 -22.352607 5.867015 15.019752 47.918780 0.982556 -10.128038 2.526220 0.321200 -3.642800 -10.073800 1.195513 -0.994113 1.580827 27.218754 1.040792 -5.590804 -1.115031 -7.557601 23.364428 -0.914356 2.446189 -5.588392 -0.142900 -2.436300 6.713200 2.372365 0.415289 6.561342 1.914310 0.812264 1.350187 -0.459727 0.364849 -2.056244 -8.986186 -5.134206 -16.622904 6.256183 -5.784447 16.412274 3.595800 -2.885200 12.700400 -6.314653 -0.714931 -1.659920 -83.798561 3.431917 27.046472 17.144312 -24.335728 -4.592489 -1.306407 -2.251953 7.478339 18.989648 20.613618 8.102300 -7.125000 0.000000 0.000000 -9.557600 54.048900 -2.140800 5.258790 1.401853 -1.223666 85.307691 -7.722154 17.708273 -17.572690 25.949081 -4.426468 0.390580 -0.128240 4.786407 -14.814739 8.953394 -2.445600 7.125000 0.000000 0.000000 8.399200 -20.666800 4.947000 
106.910400 107.525628 -47.622630 -4.418936 -47.107570 5.065623 -2.286214 0.415638 0.924775 -10.203109 -5.976804 -23.892886 6.190574 15.335037 48.994375 0.975963 -9.891949 2.002160 0.167000 -2.632500 -7.257300 1.182278 -1.005420 1.633488 27.784030 1.240672 -3.881317 -0.917830 -7.078027 22.006117 -0.835079 2.218989 -5.057970 -0.105800 -2.097000 5.773900 2.548166 0.918407 7.233276 1.951544 1.503085 1.619396 -0.549427 0.719239 -1.950161 -8.978714 -5.165656 -16.161787 6.221499 -5.854310 16.207664 3.571100 -2.926800 12.497400 -6.327865 -0.691469 -1.636906 -83.574053 3.586144 27.468070 16.904807 -24.037831 -4.470443 -1.241484 -2.343526 6.266849 18.396472 21.170944 8.031500 -7.125000 0.000000 0.000000 -10.443600 54.558300 -2.472800 5.291147 1.394994 -1.201876 85.052868 -7.767310 17.846437 -17.436057 25.782657 -4.362622 0.388213 -0.141570 5.058834 -14.792478 9.190133 -2.508200 7.125000 0.000000 0.000000 8.409300 -20.413900 5.001500 
106.312668 107.760858 -47.210670 -2.636740 -47.514427 4.273450 -2.410530 0.274413 0.763748 -11.081458 -7.184114 -25.164348 5.458594 14.825017 46.531673 0.819939 -7.058637 0.513075 0.471400 -4.403700 -12.215200 1.264579 -1.009785 1.750191 26.358577 1.393338 -4.018486 -0.897943 -7.048414 21.917216 -0.858174 2.127317 -5.763621 -0.065200 -1.648000 4.533700 1.137843 1.025869 7.682142 1.868370 1.518479 1.051855 0.095941 0.754180 -3.332884 -9.748615 -4.813365 -14.834724 6.678098 -5.335938 16.707105 3.997100 -2.776100 12.447200 -6.278912 -0.537262 -1.739977 -84.329497 6.166577 26.161714 17.076039 -24.335004 -4.572031 -1.273659 -2.296867 6.050595 19.143271 20.445338 8.128200 -7.125000 0.000000 0.000000 -9.316800 53.926400 -2.058200 5.254784 1.376764 -1.228249 84.235525 -9.141286 18.878036 -17.099946 25.300470 -4.193595 0.394487 -0.125185 5.072884 -14.873539 8.507122 -2.334700 7.125000 0.000000 0.000000 8.366400 -21.125400 4.839700 
105.590082 107.820570 -46.674456 -1.029789 -47.954116 3.513983 -2.649604 0.155932 0.658157 -12.031123 -7.767700 -25.693266 4.130044 13.724587 41.856025 0.537700 -3.525682 -1.337888 1.640900 -8.074300 -22.940000 1.333759 -0.995075 1.796582 25.037669 1.565982 -4.041901 -0.939538 -7.147746 22.204461 -0.950788 2.415206 -6.253846 -0.132300 -2.344100 6.457700 0.000683 1.383179 7.081516 1.714915 1.865619 1.243014 0.408169 0.943615 -2.672365 -9.967406 -5.032005 -15.093578 6.716015 -5.566164 16.907310 4.013100 -2.884800 12.603200 -6.348540 -0.487435 -1.733162 -84.761004 6.163550 24.413845 16.714945 -23.843685 -4.363817 -1.190581 -2.362587 7.948414 17.182907 21.504058 7.555700 -7.125000 0.000000 0.000000 -11.979300 54.682600 -2.880300 5.287044 1.358507 -1.197171 83.890427 -8.517470 18.509003 -16.605074 24.649272 -3.960807 0.385613 -0.128748 5.670756 -14.569196 8.362947 -2.247000 7.125000 0.000000 0.000000 8.595100 -21.286500 4.943300 
104.839146 107.867016 -46.007358 -0.916716 -48.077327 3.753337 -2.891757 0.064167 0.553047 -11.615709 -8.985319 -25.865309 2.661836 12.245680 36.219010 0.164170 -0.487125 -1.833972 1.011900 -6.400400 -17.950800 1.409153 -1.002825 1.883062 24.851520 1.419800 -3.099756 -0.745289 -6.672233 20.831506 -0.965094 2.561930 -5.962346 -0.209400 -2.945900 8.128300 0.226556 1.426038 7.119020 1.664163 1.934559 1.131214 0.200546 0.997672 -2.906828 -10.378795 -4.996924 -14.606781 7.042406 -5.475338 16.929262 4.256800 -2.866100 12.531800 -6.364110 -0.377427 -1.768721 -84.865577 7.403807 24.040770 16.449831 -23.536768 -4.224087 -1.291860 -2.349555 7.036931 18.610149 21.183485 8.145500 -7.125000 0.000000 0.000000 -10.224100 54.641800 -2.440800 5.266570 1.349332 -1.192533 83.638097 -8.829949 19.059658 -16.513043 24.521026 -3.918091 0.391084 -0.095545 4.641307 -14.448794 7.698651 -2.047300 7.125000 0.000000 0.000000 8.705100 -21.996700 4.866000 
104.058048 107.823588 -45.229884 -2.611170 -48.191579 4.673951 -3.072836 0.008729 0.493179 -10.011237 -9.595809 -25.671977 1.403668 10.661175 30.745574 0.109808 0.045083 -0.805374 0.898400 -6.040900 -16.903300 1.436123 -1.023039 1.943925 26.065030 0.880347 -0.931192 -0.437660 -5.857755 18.507565 -0.786510 1.745560 -5.966865 -0.059400 -1.572800 4.326500 1.929588 1.474670 7.831108 1.802686 2.166455 1.221917 -0.506211 1.120274 -3.111597 -10.515793 -5.036683 -14.452980 6.878911 -5.477380 16.820053 4.226000 -2.904400 12.463100 -6.332591 -0.291625 -1.803039 -85.147513 8.833245 23.284249 16.535846 -23.696197 -4.278049 -1.211494 -2.368057 6.810254 17.925937 21.047574 7.773100 -7.125000 0.000000 0.000000 -10.943400 54.369100 -2.542500 5.246309 1.306940 -1.195399 83.443314 -9.050736 19.753842 -16.815700 24.942827 -4.068585 0.374355 -0.059715 2.523527 -13.732885 7.433716 -1.870700 7.125000 0.000000 0.000000 9.251100 -22.315200 5.110800 
